<?xml version="1.0" encoding="utf-8"?>
<!-- Generator: Adobe Illustrator 18.1.1, SVG Export Plug-In . SVG Version: 6.00 Build 0)  -->
<svg version="1.1" id="Layer_1" xmlns="http://www.w3.org/2000/svg" xmlns:xlink="http://www.w3.org/1999/xlink" x="0px" y="0px"
	 viewBox="0 0 150 115" enable-background="new 0 0 150 115" xml:space="preserve">
<path fill="#FFFFFF" d="M140,15.212v-5.151C140,4.538,135.69,0,130.167,0h-9.293C115.351,0,111,4.538,111,10.061V15H10.167
	C4.644,15,0,19.689,0,25.212v80C0,110.735,4.644,115,10.167,115h130c5.523,0,9.833-4.265,9.833-9.788v-80
	C150,19.689,146,15.212,140,15.212z M75.167,98.97c-18.409,0-33.333-14.924-33.333-33.333s14.924-33.333,33.333-33.333
	S108.5,47.227,108.5,65.636S93.576,98.97,75.167,98.97z"/>
</svg>
