<?xml version="1.0" encoding="utf-8"?>
<!-- Generator: Adobe Illustrator 18.1.1, SVG Export Plug-In . SVG Version: 6.00 Build 0)  -->
<svg version="1.1" id="Layer_1" xmlns="http://www.w3.org/2000/svg" xmlns:xlink="http://www.w3.org/1999/xlink" x="0px" y="0px"
	 viewBox="0 0 27.086 25.05" enable-background="new 0 0 27.086 25.05" xml:space="preserve">
<path fill="#D8596E" d="M26.968,10.763c-1.962-0.207-3.801-1.317-4.862-3.156c-1.065-1.845-1.103-3.999-0.294-5.805
	c-0.937-0.724-1.97-1.328-3.079-1.789c-1.16,1.597-3.041,2.637-5.167,2.637c-2.131,0-4.017-1.046-5.177-2.651
	c-1.11,0.457-2.146,1.058-3.084,1.779c0.802,1.803,0.76,3.95-0.301,5.789c-1.065,1.845-2.912,2.955-4.881,3.157
	C0.044,11.315,0,11.914,0,12.525c0,0.597,0.043,1.185,0.118,1.762c1.962,0.207,3.801,1.317,4.862,3.156
	c1.065,1.845,1.103,3.999,0.294,5.805c0.937,0.724,1.97,1.328,3.079,1.789c1.16-1.597,3.041-2.637,5.167-2.637
	c2.131,0,4.017,1.046,5.177,2.651c1.11-0.457,2.145-1.058,3.084-1.779c-0.802-1.803-0.76-3.95,0.301-5.789
	c1.065-1.845,2.912-2.955,4.881-3.157c0.078-0.589,0.123-1.189,0.123-1.799C27.086,11.927,27.043,11.34,26.968,10.763z
	 M13.543,17.728c-2.874,0-5.203-2.33-5.203-5.203c0-2.874,2.33-5.203,5.203-5.203c2.874,0,5.203,2.33,5.203,5.203
	C18.746,15.399,16.417,17.728,13.543,17.728z"/>
</svg>
